<?xml version="1.0" encoding="UTF-8"?>
<svg id="Layer_1" xmlns="http://www.w3.org/2000/svg" version="1.1" viewBox="0 0 577.1 64">
  <g>
    <path fill="#ffffff" d="M64.3,64L91.5,0h42.1c8.1,0,11.8,6.5,8.3,14.6l-14.7,34.8c-3.5,8.1-10.9,14.6-19,14.6h-43.9ZM123.7,16.6c.3-.6,0-1.2-.6-1.2h-20.7l-14,33h20.7c.6,0,1.3-.5,1.6-1.2l13.1-30.7Z"/>
    <path fill="#ffffff" d="M131.4,64L158.6,0h44.4c8.1,0,11.7,6.6,8.3,14.6l-5.9,13.9c-3.4,7.9-10.7,14.6-20.7,14.6h-.4l7.7,21h-20l-6-21h-8.4l-8.9,21h-17.4ZM164,28.2h23c.6,0,1.3-.5,1.6-1.2l4.4-10.5c.3-.6,0-1.2-.6-1.2h-23l-5.4,12.8Z"/>
    <path fill="#ffffff" d="M228,0h17.4l-27.2,64h-17.4L228,0Z"/>
    <path fill="#ffffff" d="M300.5,0h18.7l-54.1,64h-17.1V0h18.1v41.5L300.5,0Z"/>
    <path fill="#ffffff" d="M354.7,48.5l-6.6,15.5h-53.3L322,0h53.3l-6.6,15.5h-35.9l-4.3,10h31.9l-5.5,13h-31.9l-4.3,10h35.9Z"/>
    <path fill="#b3915c" d="M383.4,0h17.4l-20.6,48.5h29.9l-6.6,15.5h-47.3L383.4,0Z"/>
    <path fill="#b3915c" d="M436.2,0h17.4l-27.2,64h-17.4L436.2,0Z"/>
    <path fill="#b3915c" d="M437.4,64L464.6,0h51.2l-6.6,15.5h-33.8l-4.3,10h29.5l-5.5,13h-29.5l-10.8,25.5h-17.4Z"/>
    <path fill="#b3915c" d="M556.5,48.5l-6.6,15.5h-53.3L523.8,0h53.3l-6.6,15.5h-35.9l-4.3,10h31.9l-5.5,13h-31.9l-4.3,10h35.9Z"/>
  </g>
  <path fill="#ffffff" d="M58.5,16.2h-15c0,0-.1,0-.2.1l-6.3,14.9c0,.1,0,.3.2.3h14.9c0,0,.1,0,.2-.1l6.4-14.9c0-.1,0-.3-.2-.3Z"/>
  <path fill="#ffffff" d="M25.1,16.2h-15c0,0-.1,0-.2.1l-6.3,14.9c0,.1,0,.3.2.3h14.9c0,0,.1,0,.2-.1l6.4-14.9c0-.1,0-.3-.2-.3Z"/>
  <path fill="#ffffff" d="M68.2,32.4h-15c0,0-.1,0-.2.1l-6.3,14.9c0,.1,0,.3.2.3h14.9c0,0,.1,0,.2-.1l6.4-14.9c0-.1,0-.3-.2-.3Z"/>
  <path fill="#b2915c" d="M35,32.4h-15c0,0-.1,0-.2.1l-6.3,14.9c0,.1,0,.3.2.3h14.9c0,0,.1,0,.2-.1l6.4-14.9c0-.1,0-.3-.2-.3Z"/>
  <path fill="#b2915c" d="M44.9,48.5h-15c0,0-.1,0-.2.1l-6.3,14.9c0,.1,0,.3.2.3h14.9c0,0,.1,0,.2-.1l6.4-14.9c0-.1,0-.3-.2-.3Z"/>
  <path fill="#b2915c" d="M82.3,0h-15c0,0-.1,0-.2.1l-6.3,14.9c0,.1,0,.3.2.3h14.9c0,0,.1,0,.2-.1L82.4.3c0-.1,0-.3-.2-.3Z"/>
</svg>
